<?xml version="1.0" standalone="no"?>
<!DOCTYPE svg PUBLIC "-//W3C//DTD SVG 20010904//EN"
 "http://www.w3.org/TR/2001/REC-SVG-20010904/DTD/svg10.dtd">
<svg version="1.0" xmlns="http://www.w3.org/2000/svg"
 width="89.000000pt" height="55.000000pt" viewBox="0 0 89.000000 55.000000"
 preserveAspectRatio="xMidYMid meet">

<g transform="translate(0.000000,55.000000) scale(0.100000,-0.100000)"
fill="#000000" stroke="none">
<path d="M475 480 c-168 -18 -315 -78 -349 -141 -17 -31 -18 -40 -7 -67 17
-40 57 -56 125 -49 54 5 110 32 100 48 -3 5 -1 9 5 9 12 0 6 59 -7 72 -7 7
-12 2 -17 -11 -15 -47 -146 -94 -177 -63 -40 40 149 119 344 143 187 22 301
-39 192 -103 -16 -9 -47 -24 -69 -33 -40 -16 -40 -16 -16 3 22 18 23 22 11 56
-6 20 -14 36 -17 36 -3 0 -25 -22 -50 -50 -25 -27 -51 -50 -58 -50 -19 0 -38
-27 -40 -58 -2 -15 -8 -49 -15 -75 -12 -45 -11 -49 10 -72 31 -33 40 -31 40 6
0 17 9 52 21 78 19 46 23 49 67 55 57 8 142 46 171 77 43 46 15 132 -56 167
-48 25 -118 32 -208 22z"/>
</g>
</svg>
